<?xml version="1.0" encoding="utf-8"?>
<svg version="1.1" xmlns:xlink="http://www.w3.org/1999/xlink" width="30px" height="30px" xmlns="http://www.w3.org/2000/svg">
  <g transform="matrix(1 0 0 1 -19 -18 )">
    <path d="M 29.64375 16.281887755102  C 29.88125 16.5242346938776  30 16.8112244897959  30 17.1428571428571  C 30 17.4744897959184  29.88125 17.7614795918367  29.64375 18.0038265306122  C 29.40625 18.2461734693878  29.125 18.3673469387755  28.8 18.3673469387755  L 24.6 18.3673469387755  C 24.6 20.5484693877551  24.18125 22.3979591836735  23.34375 23.9158163265306  L 27.24375 27.9145408163265  C 27.48125 28.156887755102  27.6 28.4438775510204  27.6 28.7755102040816  C 27.6 29.1071428571429  27.48125 29.3941326530612  27.24375 29.6364795918367  C 27.01875 29.8788265306122  26.7375 30  26.4 30  C 26.0625 30  25.78125 29.8788265306122  25.55625 29.6364795918367  L 21.84375 25.8673469387755  C 21.78125 25.9311224489796  21.6875 26.0140306122449  21.5625 26.1160714285714  C 21.4375 26.218112244898  21.175 26.3998724489796  20.775 26.6613520408163  C 20.375 26.9228316326531  19.96875 27.155612244898  19.55625 27.359693877551  C 19.14375 27.5637755102041  18.63125 27.7487244897959  18.01875 27.9145408163265  C 17.40625 28.0803571428571  16.8 28.1632653061225  16 28.1632653061225  L 16 11.0204081632653  L 14 11.0204081632653  L 14 28.1632653061225  C 13.1625 28.1632653061225  12.528125 28.0771683673469  11.896875 27.9049744897959  C 11.265625 27.7327806122449  10.721875 27.5223214285714  10.265625 27.2735969387755  C 9.809375 27.0248724489796  9.396875 26.7761479591837  9.028125 26.5274234693878  C 8.659375 26.2786989795918  8.3875 26.0714285714286  8.2125 25.905612244898  L 7.93125 25.6377551020408  L 4.5 29.5982142857143  C 4.25 29.8660714285714  3.95 30  3.6 30  C 3.3 30  3.03125 29.8979591836735  2.79375 29.6938775510204  C 2.55625 29.4642857142857  2.428125 29.1804846938776  2.409375 28.8424744897959  C 2.390625 28.5044642857143  2.4875 28.2079081632653  2.7 27.952806122449  L 6.4875 23.609693877551  C 5.7625 22.155612244898  5.4 20.4081632653061  5.4 18.3673469387755  L 1.2 18.3673469387755  C 0.875 18.3673469387755  0.59375 18.2461734693878  0.35625 18.0038265306122  C 0.11875 17.7614795918367  0 17.4744897959184  0 17.1428571428571  C 0 16.8112244897959  0.11875 16.5242346938776  0.35625 16.281887755102  C 0.59375 16.0395408163265  0.875 15.9183673469388  1.2 15.9183673469388  L 5.4 15.9183673469388  L 5.4 10.2933673469388  L 2.15625 6.98341836734694  C 1.91875 6.74107142857143  1.8 6.45408163265306  1.8 6.12244897959184  C 1.8 5.79081632653061  1.91875 5.50382653061224  2.15625 5.26147959183673  C 2.39375 5.01913265306122  2.675 4.89795918367347  3 4.89795918367347  C 3.325 4.89795918367347  3.60625 5.01913265306122  3.84375 5.26147959183673  L 7.0875 9  L 22.9125 9  L 26.15625 5.26147959183673  C 26.39375 5.01913265306122  26.675 4.89795918367347  27 4.89795918367347  C 27.325 4.89795918367347  27.60625 5.01913265306122  27.84375 5.26147959183673  C 28.08125 5.50382653061224  28.2 5.79081632653061  28.2 6.12244897959184  C 28.2 6.45408163265306  28.08125 6.74107142857143  27.84375 6.98341836734694  L 24.6 10.2933673469388  L 24.6 15.9183673469388  L 28.8 15.9183673469388  C 29.125 15.9183673469388  29.40625 16.0395408163265  29.64375 16.281887755102  Z M 19.246875 1.78890306122449  C 20.415625 2.98150510204081  21 4.42602040816326  21 6.12244897959184  L 9 6.12244897959184  C 9 4.42602040816326  9.584375 2.98150510204081  10.753125 1.78890306122449  C 11.921875 0.596301020408161  13.3375 0  15 0  C 16.6625 0  18.078125 0.596301020408161  19.246875 1.78890306122449  Z " fill-rule="nonzero" fill="#027db4" stroke="none" transform="matrix(1 0 0 1 19 18 )" />
  </g>
</svg>