<?xml version="1.0" encoding="utf-8"?>
<svg version="1.1" xmlns:xlink="http://www.w3.org/1999/xlink" width="11px" height="11px" xmlns="http://www.w3.org/2000/svg">
  <g transform="matrix(1 0 0 1 -29 -77 )">
    <path d="M 34.5 77  C 37.58 77  40 79.42  40 82.5  C 40 85.58  37.58 88  34.5 88  C 31.42 88  29 85.58  29 82.5  C 29 79.42  31.42 77  34.5 77  Z " fill-rule="nonzero" fill="#ffffff" stroke="none" fill-opacity="0.00392156862745098" />
    <path d="M 34.5 77.5  C 37.3 77.5  39.5 79.7  39.5 82.5  C 39.5 85.3  37.3 87.5  34.5 87.5  C 31.7 87.5  29.5 85.3  29.5 82.5  C 29.5 79.7  31.7 77.5  34.5 77.5  Z " stroke-width="1" stroke="#aaaaaa" fill="none" />
  </g>
</svg>