<?xml version="1.0" encoding="utf-8"?>
<svg version="1.1" xmlns:xlink="http://www.w3.org/1999/xlink" width="21px" height="30px" xmlns="http://www.w3.org/2000/svg">
  <g transform="matrix(1 0 0 1 -395 -121 )">
    <path d="M 19.924276169265 7.62620192307692  C 20.2204899777283 7.62620192307692  20.4855233853007 7.71634615384615  20.7193763919822 7.89663461538462  C 21 8.13701923076923  21.054565701559 8.40144230769231  20.8830734966592 8.68990384615385  L 8.25501113585746 29.5492788461538  C 8.05233853006682 29.8497596153846  7.7249443207127 30  7.2728285077951 30  C 7.21046770601336 30  7.10133630289532 29.9879807692308  6.94543429844098 29.9639423076923  C 6.6804008908686 29.9038461538462  6.48162583518931 29.7896634615385  6.34910913140312 29.6213942307692  C 6.21659242761693 29.453125  6.1815144766147 29.2728365384615  6.24387527839644 29.0805288461538  L 10.8507795100223 14.5132211538462  L 1.35634743875278 16.3341346153846  C 1.29398663697105 16.3461538461538  1.20044543429844 16.3521634615385  1.07572383073497 16.3521634615385  C 0.795100222717149 16.3521634615385  0.553452115812918 16.2860576923077  0.350779510022272 16.1538461538462  C 0.0701559020044543 15.9735576923077  -0.0311804008908686 15.7391826923077  0.0467706013363029 15.4507211538462  L 4.74721603563474 0.576923076923078  C 4.80957683741648 0.408653846153845  4.93429844097995 0.270432692307694  5.12138084632517 0.162259615384616  C 5.30846325167038 0.0540865384615374  5.52672605790646 0  5.77616926503341 0  L 13.4465478841871 0  C 13.7427616926503 0  13.9922048997773 0.0751201923076883  14.1948775055679 0.225360576923078  C 14.3975501113586 0.375600961538461  14.4988864142539 0.552884615384613  14.4988864142539 0.757211538461537  C 14.4988864142539 0.853365384615383  14.4599109131403 0.961538461538461  14.3819599109131 1.08173076923077  L 10.3830734966592 9.42908653846154  L 19.6436525612472 7.66225961538462  C 19.7683741648107 7.63822115384615  19.8619153674833 7.62620192307692  19.924276169265 7.62620192307692  Z " fill-rule="nonzero" fill="#aaaaaa" stroke="none" transform="matrix(1 0 0 1 395 121 )" />
  </g>
</svg>