<?xml version="1.0" encoding="utf-8"?>
<svg version="1.1" xmlns:xlink="http://www.w3.org/1999/xlink" width="30px" height="30px" xmlns="http://www.w3.org/2000/svg">
  <g transform="matrix(1 0 0 1 -65 -121 )">
    <path d="M 14.8681640625 17.294921875  C 14.9560546875 17.9915364583333  15 18.7565104166667  15 19.58984375  C 15 20.4231770833333  14.8193359375 21.1165364583333  14.4580078125 21.669921875  C 14.0966796875 22.2233072916667  13.65234375 22.5  13.125 22.5  L 5.625 22.5  C 5.09765625 22.5  4.6533203125 22.2233072916667  4.2919921875 21.669921875  C 3.9306640625 21.1165364583333  3.75 20.4231770833333  3.75 19.58984375  C 3.75 18.7565104166667  3.7939453125 17.9915364583333  3.8818359375 17.294921875  C 3.9697265625 16.5983072916667  4.11376953125 15.927734375  4.31396484375 15.283203125  C 4.51416015625 14.638671875  4.8095703125 14.130859375  5.2001953125 13.759765625  C 5.5908203125 13.388671875  6.064453125 13.203125  6.62109375 13.203125  C 6.6796875 13.2552083333333  6.826171875 13.3723958333333  7.060546875 13.5546875  C 7.294921875 13.7369791666667  7.47802734375 13.876953125  7.60986328125 13.974609375  C 7.74169921875 14.072265625  7.9150390625 14.1861979166667  8.1298828125 14.31640625  C 8.3447265625 14.4466145833333  8.5546875 14.541015625  8.759765625 14.599609375  C 8.96484375 14.658203125  9.169921875 14.6875  9.375 14.6875  C 9.580078125 14.6875  9.78515625 14.658203125  9.990234375 14.599609375  C 10.1953125 14.541015625  10.4052734375 14.4466145833333  10.6201171875 14.31640625  C 10.8349609375 14.1861979166667  11.00830078125 14.072265625  11.14013671875 13.974609375  C 11.27197265625 13.876953125  11.455078125 13.7369791666667  11.689453125 13.5546875  C 11.923828125 13.3723958333333  12.0703125 13.2552083333333  12.12890625 13.203125  C 12.685546875 13.203125  13.1591796875 13.388671875  13.5498046875 13.759765625  C 13.9404296875 14.130859375  14.23583984375 14.638671875  14.43603515625 15.283203125  C 14.63623046875 15.927734375  14.7802734375 16.5983072916667  14.8681640625 17.294921875  Z M 11.72607421875 6.298828125  C 12.37548828125 7.16471354166667  12.7001953125 8.20963541666666  12.7001953125 9.43359375  C 12.7001953125 10.6575520833333  12.37548828125 11.7024739583333  11.72607421875 12.568359375  C 11.07666015625 13.4342447916667  10.29296875 13.8671875  9.375 13.8671875  C 8.45703125 13.8671875  7.67333984375 13.4342447916667  7.02392578125 12.568359375  C 6.37451171875 11.7024739583333  6.0498046875 10.6575520833333  6.0498046875 9.43359375  C 6.0498046875 8.20963541666666  6.37451171875 7.16471354166667  7.02392578125 6.298828125  C 7.67333984375 5.43294270833333  8.45703125 5  9.375 5  C 10.29296875 5  11.07666015625 5.43294270833333  11.72607421875 6.298828125  Z M 26.1181640625 17.67578125  C 26.2060546875 17.79296875  26.25 17.9427083333333  26.25 18.125  L 26.25 19.375  C 26.25 19.5572916666667  26.2060546875 19.70703125  26.1181640625 19.82421875  C 26.0302734375 19.94140625  25.91796875 20  25.78125 20  L 17.34375 20  C 17.20703125 20  17.0947265625 19.94140625  17.0068359375 19.82421875  C 16.9189453125 19.70703125  16.875 19.5572916666667  16.875 19.375  L 16.875 18.125  C 16.875 17.9427083333333  16.9189453125 17.79296875  17.0068359375 17.67578125  C 17.0947265625 17.55859375  17.20703125 17.5  17.34375 17.5  L 25.78125 17.5  C 25.91796875 17.5  26.0302734375 17.55859375  26.1181640625 17.67578125  Z M 26.09619140625 12.705078125  C 26.19873046875 12.841796875  26.25 13.0078125  26.25 13.203125  L 26.25 14.296875  C 26.25 14.4921875  26.19873046875 14.658203125  26.09619140625 14.794921875  C 25.99365234375 14.931640625  25.869140625 15  25.72265625 15  L 17.40234375 15  C 17.255859375 15  17.13134765625 14.931640625  17.02880859375 14.794921875  C 16.92626953125 14.658203125  16.875 14.4921875  16.875 14.296875  L 16.875 13.203125  C 16.875 13.0078125  16.92626953125 12.841796875  17.02880859375 12.705078125  C 17.13134765625 12.568359375  17.255859375 12.5  17.40234375 12.5  L 25.72265625 12.5  C 25.869140625 12.5  25.99365234375 12.568359375  26.09619140625 12.705078125  Z M 26.1181640625 7.67578125  C 26.2060546875 7.79296875  26.25 7.94270833333333  26.25 8.125  L 26.25 9.375  C 26.25 9.55729166666666  26.2060546875 9.70703125  26.1181640625 9.82421875  C 26.0302734375 9.94140625  25.91796875 10  25.78125 10  L 17.34375 10  C 17.20703125 10  17.0947265625 9.94140625  17.0068359375 9.82421875  C 16.9189453125 9.70703125  16.875 9.55729166666666  16.875 9.375  L 16.875 8.125  C 16.875 7.94270833333333  16.9189453125 7.79296875  17.0068359375 7.67578125  C 17.0947265625 7.55859375  17.20703125 7.5  17.34375 7.5  L 25.78125 7.5  C 25.91796875 7.5  26.0302734375 7.55859375  26.1181640625 7.67578125  Z M 27.98583984375 27.314453125  C 28.07861328125 27.1907552083333  28.125 27.0442708333333  28 26.875  L 28 3.125  C 28.125 2.95572916666666  28.07861328125 2.80924479166666  27.98583984375 2.685546875  C 27.89306640625 2.56184895833333  27.783203125 2.5  27.65625 3  L 2.34375 3  C 2.216796875 2.5  2.10693359375 2.56184895833333  2.01416015625 2.685546875  C 1.92138671875 2.80924479166666  1.875 2.95572916666666  2 3.125  L 2 26.875  C 1.875 27.0442708333333  1.92138671875 27.1907552083333  2.01416015625 27.314453125  C 2.10693359375 27.4381510416667  2.216796875 27.5  2.34375 27.5  L 7.5 27.5  L 7.5 25.625  C 7.5 25.4427083333333  7.5439453125 25.29296875  7.6318359375 25.17578125  C 7.7197265625 25.05859375  7.83203125 25  7.96875 25  L 8.90625 25  C 9.04296875 25  9.1552734375 25.05859375  9.2431640625 25.17578125  C 9.3310546875 25.29296875  9.375 25.4427083333333  9.375 25.625  L 9.375 27  L 20.625 27  L 20.625 25.625  C 20.625 25.4427083333333  20.6689453125 25.29296875  20.7568359375 25.17578125  C 20.8447265625 25.05859375  20.95703125 25  21.09375 25  L 22.03125 25  C 22.16796875 25  22.2802734375 25.05859375  22.3681640625 25.17578125  C 22.4560546875 25.29296875  22.5 25.4427083333333  22.5 25.625  L 22.5 27.5  L 27.65625 27.5  C 27.783203125 27.5  27.89306640625 27.4381510416667  27.98583984375 27.314453125  Z M 29.3115234375 0.917968750000001  C 29.7705078125 1.52994791666667  30 2.265625  30 3.125  L 30 26.875  C 30 27.734375  29.7705078125 28.4700520833333  29.3115234375 29.08203125  C 28.8525390625 29.6940104166667  28.30078125 30  27.65625 30  L 2.34375 30  C 1.69921875 30  1.1474609375 29.6940104166667  0.6884765625 29.08203125  C 0.2294921875 28.4700520833333  0 27.734375  0 26.875  L 0 3.125  C 0 2.265625  0.2294921875 1.52994791666667  0.6884765625 0.917968750000001  C 1.1474609375 0.30598958333333  1.69921875 0  2.34375 0  L 27.65625 0  C 28.30078125 0  28.8525390625 0.30598958333333  29.3115234375 0.917968750000001  Z " fill-rule="nonzero" fill="#aaaaaa" stroke="none" transform="matrix(1 0 0 1 65 121 )" />
  </g>
</svg>