<?xml version="1.0" encoding="utf-8"?>
<svg version="1.1" xmlns:xlink="http://www.w3.org/1999/xlink" width="30px" height="30px" xmlns="http://www.w3.org/2000/svg">
  <g transform="matrix(1 0 0 1 -235 -121 )">
    <path d="M 25.0390859891762 16.4701704545455  C 25.2796151533373 16.5838068181818  25.3998797354179 16.7897727272727  25.3998797354179 17.0880681818182  L 25.3998797354179 23.8636363636364  C 25.3998797354179 25.5539772727273  24.8917618761275 26.9992897727273  23.8755261575466 28.1995738636364  C 22.8592904389657 29.3998579545455  21.6355983162959 30  20.204449789537 30  L 5.19542994588094 30  C 3.76428141912207 30  2.5405892964522 29.3998579545455  1.52435357787132 28.1995738636364  C 0.508117859290439 26.9992897727273  0 25.5539772727273  0 23.8636363636364  L 0 6.13636363636364  C 0 4.44602272727272  0.508117859290439 3.00071022727273  1.52435357787132 1.80042613636364  C 2.5405892964522 0.600142045454543  3.76428141912207 0  5.19542994588094 0  L 20.204449789537 0  C 20.9621166566446 0  21.665664461816 0.177556818181817  22.3150932050511 0.532670454545453  C 22.495490078172 0.632102272727271  22.6037282020445 0.795454545454545  22.6398075766687 1.02272727272727  C 22.6758869512928 1.26420454545454  22.6217678893566 1.47017045454545  22.4774503908599 1.640625  L 21.5935057125676 2.68465909090909  C 21.4732411304871 2.82670454545454  21.3349368610944 2.89772727272727  21.1785929043897 2.89772727272727  C 21.1425135297655 2.89772727272727  21.0883944678292 2.88352272727273  21.0162357185809 2.85511363636364  C 20.7396271797956 2.76988636363636  20.4690318701143 2.72727272727273  20.204449789537 3  L 5.19542994588094 3  C 4.40168370414913 2.72727272727273  3.72218881539387 3.06107954545454  3.15694527961515 3.72869318181818  C 2.59170174383644 4.39630681818182  2.30907997594708 5.19886363636364  2.30907997594708 6.13636363636364  L 2.30907997594708 23.8636363636364  C 2.30907997594708 24.8011363636364  2.59170174383644 25.6036931818182  3.15694527961515 26.2713068181818  C 3.72218881539387 26.9389204545455  4.40168370414913 27.2727272727273  5.19542994588094 27  L 20.204449789537 27  C 20.9981960312688 27.2727272727273  21.6776909200241 26.9389204545455  22.2429344558028 26.2713068181818  C 22.8081779915815 25.6036931818182  23.0907997594708 24.8011363636364  23.0907997594708 23.8636363636364  L 23.0907997594708 18.4517045454545  C 23.0907997594708 18.2670454545455  23.1449188214071 18.1107954545455  23.2531569452796 17.9829545454545  L 24.4076969332532 16.6193181818182  C 24.5279615153337 16.4772727272727  24.6662657847264 16.40625  24.8226097414312 16.40625  C 24.8947684906795 16.40625  24.9669272399278 16.4275568181818  25.0390859891762 16.4701704545455  Z M 30 5.45454545454545  C 30 5.92329545454545  29.8556825015033 6.328125  29.5670475045099 6.66903409090909  L 14.8827420324714 24.0127840909091  C 14.5941070354781 24.3536931818182  14.2513529765484 24.5241477272727  13.8544798556825 24.5241477272727  C 13.4576067348166 24.5241477272727  13.114852675887 24.3536931818182  12.8262176788936 24.0127840909091  L 5.06915213469633 14.8508522727273  C 4.78051713770295 14.5099431818182  4.63619963920625 14.1051136363636  4.63619963920625 13.6363636363636  C 4.63619963920625 13.1676136363636  4.78051713770295 12.7627840909091  5.06915213469633 12.421875  L 7.05351773902586 10.078125  C 7.34215273601924 9.73721590909091  7.68490679494889 9.56676136363636  8.08177991581479 9.56676136363636  C 8.4786530366807 9.56676136363636  8.82140709561034 9.73721590909091  9.11004209260373 10.078125  L 13.8544798556825 15.6818181818182  L 25.5261575466025 1.89630681818182  C 25.8147925435959 1.55539772727273  26.1575466025256 1.38494318181818  26.5544197233915 1.38494318181818  C 26.9512928442574 1.38494318181818  27.294046903187 1.55539772727273  27.5826819001804 1.89630681818182  L 29.5670475045099 4.24005681818182  C 29.8556825015033 4.58096590909091  30 4.98579545454545  30 5.45454545454545  Z " fill-rule="nonzero" fill="#aaaaaa" stroke="none" transform="matrix(1 0 0 1 235 121 )" />
  </g>
</svg>