<?xml version="1.0" encoding="utf-8"?>
<svg version="1.1" xmlns:xlink="http://www.w3.org/1999/xlink" width="30px" height="30px" xmlns="http://www.w3.org/2000/svg">
  <g transform="matrix(1 0 0 1 -147 -893 )">
    <path d="M 23.0559440559441 15  L 28.6363636363636 18.0078125  C 29.2797202797203 18.3463541666667  29.6958041958042 18.8509114583333  29.8846153846154 19.521484375  C 30.0734265734266 20.1920572916667  29.986013986014 20.8268229166667  29.6223776223776 21.42578125  L 28.2797202797203 23.57421875  C 27.9160839160839 24.1731770833333  27.3741258741259 24.560546875  26.6538461538462 24.736328125  C 25.9335664335664 24.912109375  25.2517482517483 24.8307291666667  24.6083916083916 24.4921875  L 19.027972027972 21.50390625  L 19.027972027972 27.5  C 19.027972027972 28.1770833333333  18.7622377622378 28.7630208333333  18.2307692307692 29.2578125  C 17.6993006993007 29.7526041666667  17.0699300699301 30  16.3426573426573 30  L 13.6573426573427 30  C 12.9300699300699 30  12.3006993006993 29.7526041666667  11.7692307692308 29.2578125  C 11.2377622377622 28.7630208333333  10.972027972028 28.1770833333333  10.972027972028 27.5  L 10.972027972028 21.50390625  L 5.39160839160839 24.4921875  C 4.74825174825175 24.8307291666667  4.06643356643357 24.912109375  3.34615384615385 24.736328125  C 2.62587412587413 24.560546875  2.08391608391609 24.1731770833333  1.72027972027972 23.57421875  L 0.377622377622378 21.42578125  C 0.0139860139860141 20.8268229166667  -0.0734265734265734 20.1920572916667  0.115384615384615 19.521484375  C 0.304195804195804 18.8509114583333  0.72027972027972 18.3463541666667  1.36363636363636 18.0078125  L 6.94405594405594 15  L 1.36363636363636 11.9921875  C 0.72027972027972 11.6536458333333  0.304195804195804 11.1490885416667  0.115384615384615 10.478515625  C -0.0734265734265734 9.80794270833333  0.0139860139860141 9.17317708333333  0.377622377622378 8.57421875  L 1.72027972027972 6.42578125  C 2.08391608391609 5.82682291666666  2.62587412587413 5.439453125  3.34615384615385 5.263671875  C 4.06643356643357 5.087890625  4.74825174825175 5.16927083333333  5.39160839160839 5.5078125  L 10.972027972028 8.49609375  L 10.972027972028 2.5  C 10.972027972028 1.82291666666667  11.2377622377622 1.23697916666667  11.7692307692308 0.742187500000001  C 12.3006993006993 0.24739583333333  12.9300699300699 0  13.6573426573427 0  L 16.3426573426573 0  C 17.0699300699301 0  17.6993006993007 0.24739583333333  18.2307692307692 0.742187500000001  C 18.7622377622378 1.23697916666667  19.027972027972 1.82291666666667  19.027972027972 2.5  L 19.027972027972 8.49609375  L 24.6083916083916 5.5078125  C 25.2517482517483 5.16927083333333  25.9335664335664 5.087890625  26.6538461538462 5.263671875  C 27.3741258741259 5.439453125  27.9160839160839 5.82682291666666  28.2797202797203 6.42578125  L 29.6223776223776 8.57421875  C 29.986013986014 9.17317708333333  30.0734265734266 9.80794270833333  29.8846153846154 10.478515625  C 29.6958041958042 11.1490885416667  29.2797202797203 11.6536458333333  28.6363636363636 11.9921875  L 23.0559440559441 15  Z " fill-rule="nonzero" fill="#7f7f7f" stroke="none" transform="matrix(1 0 0 1 147 893 )" />
  </g>
</svg>