<?xml version="1.0" encoding="utf-8"?>
<svg version="1.1" xmlns:xlink="http://www.w3.org/1999/xlink" width="16px" height="21px" xmlns="http://www.w3.org/2000/svg">
  <g transform="matrix(1 0 0 1 -178 -799 )">
    <path d="M 14.4 19.0152015862525  L 14.4 2  L 1.6 2  L 1.6 19.0152015862525  L 6.8875 13.380039656312  L 8 12.2002643754131  L 9.1125 13.380039656312  L 14.4 19.0152015862525  Z M 1.45 0  L 14.55 0  C 14.7416666666667 0  14.925 0.0416391275611372  15.1 0.124917382683412  C 15.375 0.245208195637803  15.59375 0.434897554527428  15.75625 0.69398545935228  C 15.91875 0.95307336417713  16 1.23992068737607  16 1.55452742894911  L 16 19.4454725710509  C 16 19.7600793126239  15.91875 20.0469266358229  15.75625 20.3060145406477  C 15.59375 20.5651024454726  15.375 20.7547918043622  15.1 20.8750826173166  C 14.9416666666667 20.9491077329808  14.7583333333333 20.986120290813  14.55 20.986120290813  C 14.15 20.986120290813  13.8041666666667 20.8380700594845  13.5125 20.5419695968275  L 8 14.6569729015202  L 2.4875 20.5419695968275  C 2.1875 20.8473231989425  1.84166666666667 21  1.45 21  C 1.25833333333333 21  1.075 20.9583608724389  0.9 20.8750826173166  C 0.625 20.7547918043622  0.40625 20.5651024454726  0.24375 20.3060145406477  C 0.08125 20.0469266358229  0 19.7600793126239  0 19.4454725710509  L 0 1.55452742894911  C 0 1.23992068737607  0.08125 0.95307336417713  0.24375 0.69398545935228  C 0.40625 0.434897554527428  0.625 0.245208195637803  0.9 0.124917382683412  C 1.075 0.0416391275611372  1.25833333333333 0  1.45 0  Z " fill-rule="nonzero" fill="#009dd9" stroke="none" transform="matrix(1 0 0 1 178 799 )" />
  </g>
</svg>